<svg xmlns="http://www.w3.org/2000/svg" viewBox="0 0 48 48" width="48px" height="48px"><path fill="#ee4c2c" d="M39.5,18.8c0,1.8-1.5,3.3-3.3,3.3s-3.3-1.5-3.3-3.3c0-1.8,1.5-3.3,3.3-3.3S39.5,17,39.5,18.8z"/><path fill="#ee4c2c" d="M15.3,18.8c0-4.7,3.8-8.5,8.5-8.5s8.5,3.8,8.5,8.5c0,4.7-3.8,8.5-8.5,8.5S15.3,23.5,15.3,18.8z M16.4,18.8 c0,4.1,3.3,7.4,7.4,7.4s7.4-3.3,7.4-7.4c0-4.1-3.3-7.4-7.4-7.4S16.4,14.7,16.4,18.8z"/><path fill="#ee4c2c" d="M9.1,29.8c0-4.7,3.8-8.5,8.5-8.5s8.5,3.8,8.5,8.5c0,4.7-3.8,8.5-8.5,8.5S9.1,34.5,9.1,29.8z M10.2,29.8 c0,4.1,3.3,7.4,7.4,7.4s7.4-3.3,7.4-7.4c0-4.1-3.3-7.4-7.4-7.4S10.2,25.7,10.2,29.8z"/><path fill="#ee4c2c" d="M21.6,29.8c0-4.7,3.8-8.5,8.5-8.5s8.5,3.8,8.5,8.5c0,4.7-3.8,8.5-8.5,8.5S21.6,34.5,21.6,29.8z M22.7,29.8 c0,4.1,3.3,7.4,7.4,7.4s7.4-3.3,7.4-7.4c0-4.1-3.3-7.4-7.4-7.4S22.7,25.7,22.7,29.8z"/></svg>
